<svg xmlns="http://www.w3.org/2000/svg" xmlns:xlink="http://www.w3.org/1999/xlink" version="1.1" width="256" height="256" viewBox="0 0 256 256" xml:space="preserve">

<defs>
</defs>
<g style="stroke: none; stroke-width: 0; stroke-dasharray: none; stroke-linecap: butt; stroke-linejoin: miter; stroke-miterlimit: 10; fill: none; fill-rule: nonzero; opacity: 1;" transform="translate(1.4065934065934016 1.4065934065934016) scale(2.81 2.81)" >
	<path d="M 86.881 12.708 H 22.387 c -0.903 0 -1.765 0.381 -2.372 1.05 l -4.74 5.215 l 9.041 -3.372 c 1.904 -0.71 4.032 -0.583 5.839 0.348 l 54.504 28.106 h 2.224 c 1.723 0 3.119 -1.396 3.119 -3.119 V 15.827 C 90 14.105 88.604 12.708 86.881 12.708 z M 69.719 19.983 c 0 -1.441 1.168 -2.609 2.609 -2.609 c 1.441 0 2.609 1.168 2.609 2.609 c 0 1.441 -1.168 2.609 -2.609 2.609 C 70.887 22.592 69.719 21.424 69.719 19.983 z M 72.158 31.781 c -0.386 0 -0.772 -0.147 -1.066 -0.442 c -0.589 -0.589 -0.589 -1.544 0 -2.133 l 10.572 -10.572 c 0.589 -0.589 1.544 -0.589 2.133 0 c 0.589 0.589 0.589 1.544 0 2.133 L 73.224 31.339 C 72.93 31.633 72.544 31.781 72.158 31.781 z M 82.447 32.711 c -1.441 0 -2.609 -1.168 -2.609 -2.61 c 0 -1.441 1.168 -2.609 2.609 -2.609 s 2.609 1.168 2.609 2.609 C 85.057 31.543 83.888 32.711 82.447 32.711 z" style="stroke: none; stroke-width: 1; stroke-dasharray: none; stroke-linecap: butt; stroke-linejoin: miter; stroke-miterlimit: 10; fill: rgb(0,0,0); fill-rule: nonzero; opacity: 1;" transform=" matrix(1 0 0 1 0 0) " stroke-linecap="round" />
	<path d="M 49.522 40.646 l -2.675 -1.38 c -0.94 -0.485 -2.099 -0.114 -2.583 0.825 l -1.38 2.675 l 6.084 3.138 l 1.38 -2.676 C 50.832 42.289 50.462 41.13 49.522 40.646 z" style="stroke: none; stroke-width: 1; stroke-dasharray: none; stroke-linecap: butt; stroke-linejoin: miter; stroke-miterlimit: 10; fill: rgb(0,0,0); fill-rule: nonzero; opacity: 1;" transform=" matrix(1 0 0 1 0 0) " stroke-linecap="round" />
	<path d="M 85.632 49.084 L 28.31 19.524 c -0.803 -0.414 -1.743 -0.47 -2.59 -0.154 L 9.935 25.257 c -1.548 0.577 -2.404 2.237 -1.977 3.833 l 4.358 16.275 c 0.234 0.873 0.825 1.606 1.628 2.02 l 57.322 29.559 c 1.531 0.789 3.412 0.188 4.201 -1.343 l 11.508 -22.317 C 87.764 51.754 87.163 49.873 85.632 49.084 z M 18.313 32.004 c -0.633 1.228 -2.143 1.711 -3.371 1.077 s -1.711 -2.143 -1.077 -3.371 c 0.633 -1.228 2.143 -1.711 3.371 -1.077 S 18.946 30.775 18.313 32.004 z M 34.415 46.277 c -0.769 1.491 -2.288 2.347 -3.859 2.347 c -0.668 0 -1.345 -0.154 -1.978 -0.481 l -4.716 -2.432 c -0.74 -0.382 -1.031 -1.291 -0.649 -2.032 c 0.382 -0.74 1.291 -1.032 2.032 -0.649 l 4.716 2.432 c 0.645 0.333 1.441 0.078 1.774 -0.567 l 1.137 -2.206 c 0.16 -0.31 0.189 -0.666 0.081 -1.003 c -0.108 -0.337 -0.337 -0.61 -0.647 -0.77 l -2.626 -1.354 c -2.124 -1.095 -2.96 -3.713 -1.865 -5.837 l 1.138 -2.206 c 0.529 -1.026 1.428 -1.785 2.533 -2.138 c 1.104 -0.352 2.278 -0.256 3.304 0.273 l 3.385 1.746 c 0.74 0.382 1.031 1.291 0.649 2.032 c -0.382 0.741 -1.292 1.032 -2.032 0.649 l -3.385 -1.746 c -0.645 -0.333 -1.441 -0.08 -1.774 0.567 l -1.138 2.206 c -0.16 0.309 -0.188 0.666 -0.081 1.003 c 0.108 0.337 0.338 0.61 0.648 0.77 l 2.626 1.354 c 1.026 0.529 1.785 1.428 2.138 2.533 c 0.353 1.104 0.256 2.278 -0.273 3.304 L 34.415 46.277 z M 45.975 56.505 c -0.233 0 -0.469 -0.054 -0.69 -0.168 c -0.74 -0.382 -1.031 -1.291 -0.649 -2.032 l 2.95 -5.72 l -6.084 -3.138 l -2.95 5.72 c -0.381 0.74 -1.292 1.031 -2.032 0.649 c -0.74 -0.382 -1.031 -1.291 -0.649 -2.032 l 3.64 -7.059 c 0 0 0 -0.001 0.001 -0.001 s 0.001 -0.001 0.001 -0.001 l 2.07 -4.015 c 1.247 -2.417 4.227 -3.371 6.647 -2.124 l 2.675 1.38 c 2.418 1.247 3.37 4.229 2.124 6.646 l -5.711 11.077 C 47.05 56.208 46.522 56.505 45.975 56.505 z M 60.136 44.422 l -6.59 12.78 l 4.92 2.538 c 0.74 0.382 1.031 1.291 0.649 2.032 c -0.268 0.519 -0.795 0.817 -1.341 0.817 c -0.233 0 -0.469 -0.054 -0.69 -0.168 l -6.26 -3.229 c -0.74 -0.382 -1.031 -1.291 -0.649 -2.032 l 7.282 -14.121 c 0.382 -0.74 1.294 -1.032 2.032 -0.649 C 60.227 42.772 60.518 43.682 60.136 44.422 z M 77.451 53.351 c -0.38 0.741 -1.292 1.031 -2.032 0.649 l -4.92 -2.537 l -2.258 4.379 l 2.754 1.421 c 0.74 0.382 1.031 1.291 0.649 2.032 c -0.268 0.519 -0.795 0.817 -1.341 0.817 c -0.233 0 -0.469 -0.054 -0.69 -0.168 l -2.754 -1.421 l -2.258 4.38 l 4.92 2.538 c 0.74 0.382 1.031 1.291 0.649 2.032 c -0.268 0.519 -0.795 0.817 -1.341 0.817 c -0.233 0 -0.469 -0.054 -0.69 -0.168 l -6.26 -3.229 c -0.74 -0.382 -1.031 -1.291 -0.649 -2.032 l 7.282 -14.12 c 0.383 -0.74 1.293 -1.029 2.032 -0.649 l 6.26 3.228 C 77.542 51.701 77.833 52.611 77.451 53.351 z" style="stroke: none; stroke-width: 1; stroke-dasharray: none; stroke-linecap: butt; stroke-linejoin: miter; stroke-miterlimit: 10; fill: rgb(0,0,0); fill-rule: nonzero; opacity: 1;" transform=" matrix(1 0 0 1 0 0) " stroke-linecap="round" />
	<path d="M 11.852 30.213 c -0.241 0 -0.486 -0.058 -0.713 -0.181 L 0.794 24.465 c -0.734 -0.395 -1.008 -1.31 -0.613 -2.043 c 0.395 -0.734 1.31 -1.008 2.043 -0.613 l 10.345 5.567 c 0.734 0.395 1.008 1.31 0.613 2.043 C 12.909 29.925 12.389 30.213 11.852 30.213 z" style="stroke: none; stroke-width: 1; stroke-dasharray: none; stroke-linecap: butt; stroke-linejoin: miter; stroke-miterlimit: 10; fill: rgb(0,0,0); fill-rule: nonzero; opacity: 1;" transform=" matrix(1 0 0 1 0 0) " stroke-linecap="round" />
</g>
</svg>